<svg width="200" height="200" viewBox="0 0 200 200" fill="none" xmlns="http://www.w3.org/2000/svg">
<path d="M194.942 98.3157C193.523 96.6625 191.661 95.7227 189.529 95.5699C188.666 95.1524 187.585 94.793 186.277 94.361C183.378 93.4032 178.996 91.9555 178.045 89.5981C177.852 89.124 177.645 88.6554 177.426 88.193L196.643 47.7098L196.641 47.709C196.786 47.4043 196.869 47.0649 196.869 46.7047V45.9102C196.869 22.8871 178.139 4.15588 155.115 4.15588H44.8785C21.8551 4.15549 3.12422 22.8864 3.12422 45.9098V46.7043C3.12422 47.1903 3.27226 47.6418 3.52578 48.016L22.4246 88.4918C22.2581 88.8565 22.0997 89.2248 21.9496 89.5965C20.9973 91.9551 16.6156 93.4028 13.716 94.3606C12.4086 94.7922 11.3273 95.152 10.4645 95.5696C8.33203 95.7227 6.46992 96.6621 5.05156 98.3149C3.50039 100.122 2.86601 102.327 3.21914 104.704L16.1633 189.088C16.7605 193.004 20.0695 195.845 24.032 195.845H175.973C179.93 195.845 183.235 193.003 183.831 189.088L196.774 104.708C197.143 102.332 196.506 100.119 194.942 98.3157Z" fill="#895438"/>
<path d="M155.117 4.15466H44.8798C21.8563 4.15466 3.12549 22.8855 3.12549 45.909V46.7035C3.12549 47.3251 3.37242 47.9212 3.81196 48.3608C4.2515 48.8003 4.84764 49.0472 5.46924 49.0472H194.527C195.148 49.0472 195.744 48.8003 196.184 48.3608C196.623 47.9212 196.87 47.3251 196.87 46.7035V45.909C196.87 22.8859 178.14 4.15466 155.117 4.15466H155.117Z" fill="#FFB432"/>
<path d="M155.116 4.15466H44.8782C36.7216 4.15466 29.4563 14.0301 24.8966 29.2156C24.4446 30.7203 25.5712 32.2383 27.1423 32.2383H172.854C174.425 32.2383 175.551 30.7215 175.1 29.2168C170.549 14.0304 163.273 4.15466 155.116 4.15466Z" fill="#895438"/>
<path d="M194.526 49.0472H5.46807C5.08457 49.0474 4.70689 48.9534 4.36823 48.7735C4.02957 48.5935 3.74031 48.3331 3.52588 48.0152L22.4247 88.4909C24.9868 82.8671 29.3931 78.2292 34.3923 75.9531C39.8087 73.4859 45.5634 73.5741 52.2267 73.6741C55.1747 73.7191 58.2235 73.7652 61.5856 73.6105C63.2454 73.5323 64.4681 72.455 66.4856 70.5581C70.4185 66.8605 75.804 61.7976 89.4505 65.7648C96.4846 67.8166 103.515 67.8169 110.541 65.7656C124.194 61.7945 129.581 66.862 133.516 70.5613C135.532 72.4566 136.753 73.5323 138.41 73.6109C141.774 73.7656 144.825 73.7195 147.775 73.6745C154.44 73.5738 160.194 73.4863 165.603 75.9542C170.508 78.1812 174.842 82.696 177.426 88.1921L196.643 47.7089L196.641 47.7081C196.451 48.1086 196.152 48.4471 195.777 48.6842C195.403 48.9213 194.969 49.0473 194.525 49.0476L194.526 49.0472Z" fill="#6C392C"/>
<path d="M82.8413 95.5441V119.949C82.8413 129.412 90.5397 137.11 100.003 137.11C109.466 137.11 117.164 129.412 117.164 119.949V95.5441H82.8413Z" fill="#E6A22D"/>
<path d="M27.605 21.5801H172.394C170.884 17.9555 169.192 14.7996 167.356 12.2051H32.6425C30.8073 14.7996 29.1155 17.9555 27.605 21.5801Z" fill="#6C392C"/>
<path d="M193.421 126.567C186.824 125.013 180.884 121.421 176.445 116.3C171.448 110.536 168.668 103.176 168.587 95.5441H188.906C191.3 95.5441 193.387 96.5019 194.942 98.3148C196.507 100.118 197.143 102.332 196.774 104.708L193.421 126.567ZM185.468 164.895C168.328 164.895 154.369 178.748 154.185 195.845H175.974C179.931 195.845 183.235 193.002 183.831 189.088L187.531 164.964C186.844 164.92 186.156 164.897 185.468 164.895H185.468ZM23.5489 116.3C28.5462 110.536 31.3259 103.176 31.4067 95.5441H11.0884C8.69463 95.5441 6.60713 96.5019 5.05205 98.3144C3.50088 100.121 2.8665 102.327 3.21963 104.704L6.57314 126.567C13.17 125.013 19.1098 121.421 23.5489 116.3V116.3ZM46.3571 195.719C46.3571 178.465 32.3196 164.428 15.0661 164.428C14.163 164.428 13.2724 164.468 12.3981 164.541L16.1638 189.089C16.761 193.004 20.07 195.846 24.0325 195.846H46.3825L46.3579 195.719L46.3571 195.719Z" fill="#FFB432"/>
<path d="M53.9532 67.9343C53.2459 67.9354 52.5476 67.7761 51.9107 67.4684C51.2738 67.1607 50.715 66.7126 50.2763 66.1578L46.0298 60.7984C44.422 58.7695 44.7638 55.8214 46.7927 54.2136C48.8204 52.6058 51.7692 52.9468 53.3774 54.9765L57.6239 60.3359C59.2317 62.3648 58.8899 65.3128 56.861 66.9206C56.0344 67.5778 55.0093 67.9352 53.9532 67.9343ZM146.041 67.9343C144.985 67.9351 143.96 67.5777 143.133 66.9206C141.104 65.3132 140.763 62.3648 142.37 60.3359L146.617 54.9765C148.224 52.9476 151.172 52.6062 153.201 54.2136C155.23 55.821 155.572 58.7695 153.964 60.7984L149.718 66.1578C149.279 66.7125 148.72 67.1606 148.084 67.4683C147.447 67.776 146.748 67.9354 146.041 67.9343Z" fill="#DDB926"/>
<path d="M100.003 124.83C97.414 124.83 95.3152 122.731 95.3152 120.142V112.501C95.3152 109.912 97.414 107.813 100.003 107.813C102.591 107.813 104.69 109.912 104.69 112.501V120.142C104.69 122.731 102.591 124.83 100.003 124.83Z" fill="#6C392C"/>
<path d="M41.5488 179.082C44.5898 183.905 46.3574 189.608 46.3574 195.719L46.382 195.845H154.185C154.252 189.665 156.125 183.913 159.292 179.082H41.5488ZM185.468 164.895C186.164 164.895 186.852 164.921 187.531 164.964L193.421 126.567C187.508 125.178 182.089 122.125 177.812 117.772L169.953 169.03C174.673 166.317 180.023 164.891 185.468 164.895ZM12.398 164.54C13.2854 164.466 14.1755 164.428 15.066 164.427C20.4394 164.427 25.5003 165.79 29.923 168.186L22.1828 117.779L22.1781 117.776C17.9011 122.128 12.4839 125.179 6.573 126.568L12.398 164.54ZM117.164 112.308H173.502C170.351 107.279 168.651 101.478 168.587 95.5441H117.164V112.308ZM82.8414 95.5441H31.407C31.3434 101.478 29.6427 107.279 26.4925 112.308H82.8418L82.8414 95.5441Z" fill="#FFC83C"/>
<path d="M28.8652 161.299H171.139L172.576 151.924H27.4257L28.8652 161.299ZM113.844 130.078C110.718 134.338 105.679 137.11 100.003 137.11C94.3261 137.11 89.2871 134.338 86.1613 130.078H24.071L25.5109 139.453H174.488L175.925 130.078H113.843H113.844Z" fill="#6C392C"/>
<path d="M11.0882 95.5441H188.905C189.116 95.5441 189.323 95.5543 189.529 95.5687C188.666 95.1512 187.585 94.7918 186.277 94.3597C183.378 93.4019 178.996 91.9543 178.044 89.5969C175.573 83.4687 170.92 78.3683 165.603 75.9539C160.194 73.4859 154.439 73.5734 147.775 73.6742C144.825 73.7191 141.774 73.7652 138.41 73.6105C136.753 73.5324 135.532 72.4562 133.516 70.5609C129.581 66.8613 124.194 61.7941 110.541 65.7652C103.515 67.817 96.4847 67.8168 89.4503 65.7644C75.8038 61.7976 70.4183 66.8605 66.4854 70.5578C64.4679 72.4547 63.2452 73.532 61.5854 73.6101C58.2233 73.7648 55.1745 73.7187 52.2265 73.6738C45.5628 73.5738 39.8085 73.4855 34.3921 75.9527C29.069 78.3761 24.4175 83.4769 21.9495 89.5953C20.9972 91.9539 16.6155 93.4015 13.7159 94.3594C12.4085 94.791 11.3272 95.1508 10.4644 95.5683C10.6718 95.5526 10.8798 95.5444 11.0878 95.5437L11.0882 95.5441Z" fill="#FAD231"/>
<path d="M13.7164 94.3602C12.409 94.7918 11.3277 95.1516 10.4648 95.5692C10.6723 95.5535 10.8802 95.5453 11.0883 95.5446H188.905C189.116 95.5446 189.323 95.5547 189.529 95.5692C188.666 95.1516 187.585 94.7922 186.277 94.3602C183.665 93.4969 179.856 92.2336 178.431 90.2672H21.5629C20.1367 92.234 16.3289 93.4973 13.7164 94.3602Z" fill="#DDB926"/>
</svg>
