<svg width="200" height="200" viewBox="0 0 200 200" fill="none" xmlns="http://www.w3.org/2000/svg">
<path d="M188.183 109.7C186.851 108.32 185.102 107.535 183.099 107.408C182.288 107.059 181.272 106.759 180.044 106.399C177.321 105.599 173.205 104.391 172.311 102.423C172.13 102.028 171.936 101.636 171.73 101.25L189.781 67.4598L189.779 67.4591C189.915 67.2048 189.994 66.9215 189.994 66.6209V65.9577C189.994 46.7407 172.399 31.1061 150.772 31.1061H47.2219C25.5949 31.1058 8.00018 46.7401 8.00018 65.9574V66.6205C8.00018 67.0262 8.13925 67.4031 8.37739 67.7154L26.1299 101.5C25.9735 101.804 25.8248 102.112 25.6837 102.422C24.7892 104.391 20.6733 105.599 17.9495 106.398C16.7214 106.759 15.7058 107.059 14.8952 107.408C12.8921 107.535 11.143 108.32 9.81062 109.699C8.35354 111.207 7.75764 113.048 8.08935 115.032L20.2484 185.466C20.8094 188.734 23.9177 191.106 27.6399 191.106H170.365C174.082 191.106 177.187 188.733 177.746 185.466L189.904 115.035C190.251 113.052 189.653 111.205 188.183 109.7Z" fill="#895438"/>
<path fill-rule="evenodd" clip-rule="evenodd" d="M39.918 22.4537C41.6758 22.4537 43.4336 22.4537 45.1914 22.4537C39.4586 23.5603 34.9664 26.5551 31.7148 31.4381C29.3943 34.2537 27.5715 37.3787 26.2461 40.8131C24.4568 44.618 23.0897 48.5893 22.1445 52.7272C22.1576 53.0121 22.0926 53.2725 21.9492 53.5084C21.3949 56.2162 21.0043 58.9506 20.7773 61.7116C20.2481 65.5069 20.0203 69.3479 20.0938 73.235C20.5949 74.1832 21.3436 74.8344 22.3398 75.1881C22.0981 75.2487 22.0981 75.3463 22.3398 75.4811C72.4049 75.6114 122.47 75.6114 172.535 75.4811C173.788 75.4559 175.025 75.3256 176.246 75.0905C176.13 74.9998 176 74.9672 175.855 74.9928C176.084 74.8278 176.345 74.6977 176.637 74.6022C177.844 73.7459 178.3 72.5741 178.004 71.0866C177.846 68.2479 177.585 65.4485 177.223 62.6881C176.924 59.5145 176.468 56.3895 175.855 53.3131C174.925 48.8303 173.493 44.5334 171.559 40.4225C170.015 36.7457 167.931 33.4255 165.309 30.4616C161.845 26.55 157.613 23.8807 152.613 22.4537C168.423 20.2861 180.565 25.8851 189.039 39.2506C192.056 44.9198 193.814 50.9744 194.312 57.4147C194.357 68.2221 194.292 79.0295 194.117 89.8366C193.933 90.3979 193.705 90.9186 193.434 91.3991C170.388 91.0088 147.276 90.8785 124.098 91.0084C84.1564 90.8131 44.1824 90.7481 4.17579 90.8131C4.0552 90.7914 3.95754 90.7264 3.88282 90.6178C3.81772 90.2272 3.7526 89.8366 3.6875 89.4459C3.55729 78.1178 3.55729 66.7897 3.6875 55.4616C4.70844 45.4065 8.90766 36.9756 16.2852 30.1686C23.0842 24.3817 30.9619 21.8101 39.918 22.4537Z" fill="#FEC535"/>
<path fill-rule="evenodd" clip-rule="evenodd" d="M45.1914 22.4537C45.7123 22.4537 46.233 22.4537 46.7539 22.4537C82.0404 22.4537 117.327 22.4537 152.613 22.4537C157.613 23.8807 161.845 26.55 165.309 30.4615C165.203 30.4733 165.137 30.5384 165.113 30.6569C165.272 30.9135 165.467 31.1413 165.699 31.3405C121.038 31.4381 76.3764 31.4707 31.7148 31.4381C34.9664 26.555 39.4586 23.5603 45.1914 22.4537Z" fill="#834A30"/>
<path fill-rule="evenodd" clip-rule="evenodd" d="M165.309 30.4615C167.931 33.4255 170.015 36.7457 171.559 40.4225C123.284 40.5852 74.9766 40.6828 26.6367 40.7155C26.4891 40.985 26.359 41.0176 26.2461 40.8131C27.5715 37.3787 29.3943 34.2537 31.7148 31.4381C76.3764 31.4707 121.038 31.4381 165.699 31.3405C165.467 31.1413 165.272 30.9135 165.113 30.6569C165.137 30.5384 165.203 30.4733 165.309 30.4615Z" fill="#673526"/>
<path fill-rule="evenodd" clip-rule="evenodd" d="M171.559 40.4225C173.493 44.5334 174.925 48.8303 175.855 53.3131C175.79 53.3131 175.725 53.3131 175.66 53.3131C124.553 53.3131 73.4467 53.3131 22.3398 53.3131C22.3861 53.061 22.3211 52.8656 22.1445 52.7272C23.0896 48.5893 24.4568 44.618 26.2461 40.8131C26.359 41.0176 26.4891 40.985 26.6367 40.7155C74.9766 40.6828 123.284 40.5852 171.559 40.4225Z" fill="#844B31"/>
<path fill-rule="evenodd" clip-rule="evenodd" d="M22.1445 52.7272C22.3211 52.8656 22.3861 53.061 22.3398 53.3131C73.4467 53.3131 124.553 53.3131 175.66 53.3131C124.456 53.5084 73.2189 53.5735 21.9492 53.5084C22.0926 53.2725 22.1576 53.0121 22.1445 52.7272Z" fill="#75402B"/>
<path fill-rule="evenodd" clip-rule="evenodd" d="M175.66 53.3131C175.725 53.3131 175.79 53.3131 175.855 53.3131C176.468 56.3895 176.924 59.5145 177.223 62.6881C177.116 63.4053 177.051 63.3401 177.027 62.4928C124.944 62.4928 72.8607 62.4928 20.7773 62.4928C20.7773 62.2324 20.7773 61.9719 20.7773 61.7115C21.0043 58.9506 21.3949 56.2162 21.9492 53.5084C73.2189 53.5735 124.456 53.5084 175.66 53.3131Z" fill="#673526"/>
<path fill-rule="evenodd" clip-rule="evenodd" d="M20.7773 61.7115C20.7773 61.9719 20.7773 62.2324 20.7773 62.4928C72.8607 62.4928 124.944 62.4928 177.027 62.4928C177.051 63.3401 177.116 63.4053 177.223 62.6881C177.585 65.4485 177.846 68.2479 178.004 71.0865C178.3 72.574 177.844 73.7459 176.637 74.6022C134.071 74.8615 91.4604 74.8615 48.8047 74.6022C48.2039 74.7561 47.5855 74.8537 46.9492 74.8951C38.8434 74.9278 30.7705 75.0254 22.7305 75.1881C22.6002 75.1881 22.4701 75.1881 22.3398 75.1881C21.3436 74.8344 20.5949 74.1832 20.0938 73.235C20.0203 69.3479 20.248 65.5069 20.7773 61.7115Z" fill="#844B31"/>
<path fill-rule="evenodd" clip-rule="evenodd" d="M176.637 74.6022C176.345 74.6977 176.084 74.8278 175.855 74.9928C124.819 75.1875 73.7775 75.2528 22.7305 75.1881C30.7705 75.0254 38.8434 74.9278 46.9492 74.8951C47.5855 74.8537 48.2039 74.7561 48.8047 74.6022C91.4604 74.8615 134.071 74.8615 176.637 74.6022Z" fill="#794031"/>
<path fill-rule="evenodd" clip-rule="evenodd" d="M175.855 74.9928C176 74.9672 176.13 74.9998 176.246 75.0905C175.025 75.3256 173.788 75.4559 172.535 75.4811C122.47 75.6114 72.4048 75.6114 22.3398 75.4811C22.098 75.3463 22.098 75.2487 22.3398 75.1881C22.4701 75.1881 22.6001 75.1881 22.7304 75.1881C73.7775 75.2528 124.819 75.1875 175.855 74.9928Z" fill="#FDCF34"/>
<path fill-rule="evenodd" clip-rule="evenodd" d="M4.17578 90.8131C44.1824 90.748 84.1564 90.8131 124.098 91.0084C84.4492 91.0084 44.8008 91.0084 5.15234 91.0084C4.84004 90.9561 4.57961 91.0213 4.37109 91.2037C4.20738 91.1369 4.14226 91.0068 4.17578 90.8131Z" fill="#F3AC29"/>
<path fill-rule="evenodd" clip-rule="evenodd" d="M5.15234 91.0085C44.8008 91.0085 84.4492 91.0085 124.098 91.0085C147.276 90.8786 170.388 91.0089 193.434 91.3991C130.654 91.269 67.8937 91.1387 5.15234 91.0085Z" fill="#E4931C"/>
<path fill-rule="evenodd" clip-rule="evenodd" d="M5.15234 91.0084C67.8937 91.1387 130.654 91.269 193.434 91.3991C192.131 93.0266 190.829 94.6543 189.527 96.2819C182.409 96.6694 175.248 96.7995 168.043 96.6725C164.983 96.6725 161.923 96.6725 158.863 96.6725C145.81 96.4774 132.724 96.4124 119.605 96.4772C119.605 96.1516 119.605 95.8262 119.605 95.5006C105.803 95.5006 92.0014 95.5006 78.1992 95.5006C78.1992 95.8262 78.1992 96.1516 78.1992 96.4772C58.8305 96.4122 39.4945 96.4774 20.1914 96.6725C16.056 96.7372 11.9544 96.6719 7.88672 96.4772C7.91172 96.0563 7.81406 95.6657 7.59375 95.3053C6.324 94.0709 5.24979 92.7038 4.37109 91.2038C4.57961 91.0213 4.84004 90.9561 5.15234 91.0084Z" fill="#EA9E22"/>
<path fill-rule="evenodd" clip-rule="evenodd" d="M120.191 114.837C125.595 114.837 130.999 114.837 136.402 114.837C130.967 115.031 125.498 115.097 119.996 115.032C120.029 117.897 119.996 120.762 119.898 123.626C119.867 123.986 119.77 124.116 119.605 124.016C119.605 123.626 119.605 123.235 119.605 122.844C119.573 120.239 119.605 117.635 119.703 115.032C119.834 114.885 119.997 114.82 120.191 114.837Z" fill="#6F3731"/>
<path fill-rule="evenodd" clip-rule="evenodd" d="M156.129 114.836C158.994 114.836 161.858 114.836 164.723 114.836C166.48 114.836 168.238 114.836 169.996 114.836C171.365 114.804 172.732 114.836 174.098 114.934C163.097 115.228 152.094 115.293 141.09 115.129C146.136 115.097 151.149 114.999 156.129 114.836Z" fill="#773D30"/>
<path d="M82.7168 95.1061V119.511C82.7168 128.974 90.4152 136.672 99.8781 136.672C109.341 136.672 117.039 128.974 117.039 119.511V95.1061H82.7168Z" fill="#E6A22D"/>
<path d="M193.296 126.129C186.699 124.575 180.76 120.983 176.321 115.862C171.323 110.098 168.544 102.739 168.463 95.1061H188.781C191.175 95.1061 193.263 96.0639 194.818 97.8768C196.383 99.6803 197.019 101.894 196.649 104.27L193.296 126.129ZM185.343 164.457C168.203 164.457 154.245 178.31 154.06 195.407H175.849C179.806 195.407 183.111 192.564 183.706 188.65L187.407 164.526C186.72 164.482 186.032 164.459 185.344 164.457H185.343ZM23.4244 115.862C28.4217 110.098 31.2014 102.739 31.2822 95.1061H10.9639C8.57012 95.1061 6.48261 96.0639 4.92754 97.8764C3.37636 99.6834 2.74199 101.889 3.09511 104.266L6.44863 126.129C13.0455 124.575 18.9853 120.983 23.4244 115.862V115.862ZM46.2326 195.281C46.2326 178.027 32.1951 163.99 14.9416 163.99C14.0385 163.99 13.1479 164.03 12.2736 164.103L16.0393 188.651C16.6365 192.566 19.9455 195.408 23.908 195.408H46.258L46.2334 195.281L46.2326 195.281Z" fill="#FFB432"/>
<path d="M99.8782 124.392C97.2895 124.392 95.1907 122.293 95.1907 119.704V112.063C95.1907 109.474 97.2895 107.375 99.8782 107.375C102.467 107.375 104.566 109.474 104.566 112.063V119.704C104.566 122.293 102.467 124.392 99.8782 124.392Z" fill="#6C392C"/>
<path d="M41.4243 178.644C44.4653 183.467 46.2329 189.17 46.2329 195.281L46.2575 195.407H154.06C154.127 189.227 156.001 183.475 159.168 178.644H41.4243ZM185.343 164.457C186.04 164.457 186.727 164.483 187.406 164.526L193.296 126.129C187.384 124.74 181.965 121.687 177.688 117.334L169.829 168.592C174.549 165.879 179.899 164.453 185.343 164.457ZM12.2735 164.102C13.1609 164.028 14.051 163.99 14.9415 163.989C20.3149 163.989 25.3758 165.352 29.7985 167.748L22.0583 117.341L22.0536 117.338C17.7766 121.69 12.3594 124.741 6.44849 126.13L12.2735 164.102ZM117.039 111.87H173.377C170.227 106.841 168.526 101.04 168.463 95.1061H117.039V111.87ZM82.7169 95.1061H31.2825C31.2189 101.04 29.5182 106.841 26.368 111.87H82.7172L82.7169 95.1061Z" fill="#FFC83C"/>
<path d="M28.7407 160.861H171.014L172.452 151.486H27.3012L28.7407 160.861ZM113.719 129.641C110.593 133.9 105.555 136.672 99.8782 136.672C94.2016 136.672 89.1625 133.9 86.0368 129.641H23.9465L25.3864 139.016H174.363L175.8 129.641H113.719H113.719Z" fill="#6C392C"/>
</svg>
