<svg width="1539" height="320" viewBox="0 0 1539 320" fill="none" xmlns="http://www.w3.org/2000/svg">
<g clip-path="url(#clip0_393_22)">
<path d="M320.772 150.894C324.053 209.276 295.098 267.331 241 298.564C186.901 329.798 122.147 325.846 73.2273 293.814L122.702 265.25C152.722 276.156 187.174 274.215 217 256.995C246.825 239.775 265.733 210.909 271.298 179.458L320.772 150.894ZM80.9996 21.436C157.526 -22.7467 255.381 3.47328 299.564 80.0001C303.642 87.0643 307.119 94.311 310.013 101.68L267.762 126.074C265.358 118.534 262.113 111.134 257.994 104C227.067 50.4313 158.568 32.0773 105 63.0053C58.5652 89.8142 38.5909 144.852 54.2375 193.926L90.1099 173.215L114.11 214.785L35.9858 259.89C31.0515 253.699 26.5141 247.064 22.4355 240C-21.7472 163.473 4.47279 65.6188 80.9996 21.436Z" fill="#3C3D4A"/>
<circle cx="161" cy="160" r="24" fill="#556AEF"/>
</g>
<path d="M479.17 247V72.4545H516.074V216.574H590.903V247H479.17ZM698.609 191.261V116.091H734.916V247H700.058V223.222H698.695C695.74 230.892 690.825 237.057 683.95 241.716C677.132 246.375 668.808 248.705 658.979 248.705C650.229 248.705 642.53 246.716 635.882 242.739C629.234 238.761 624.036 233.108 620.286 225.778C616.592 218.449 614.717 209.67 614.661 199.443V116.091H650.967V192.966C651.024 200.693 653.098 206.801 657.189 211.29C661.28 215.778 666.763 218.023 673.638 218.023C678.013 218.023 682.104 217.028 685.911 215.04C689.717 212.994 692.786 209.983 695.115 206.006C697.501 202.028 698.666 197.114 698.609 191.261ZM763.957 247V116.091H798.56V139.188H800.094C802.821 131.517 807.366 125.466 813.73 121.034C820.094 116.602 827.707 114.386 836.571 114.386C845.548 114.386 853.19 116.631 859.497 121.119C865.804 125.551 870.009 131.574 872.111 139.188H873.474C876.145 131.688 880.974 125.693 887.963 121.205C895.009 116.659 903.332 114.386 912.935 114.386C925.151 114.386 935.065 118.278 942.679 126.062C950.349 133.79 954.185 144.756 954.185 158.96V247H917.963V166.119C917.963 158.847 916.031 153.392 912.168 149.756C908.304 146.119 903.474 144.301 897.679 144.301C891.088 144.301 885.946 146.403 882.253 150.608C878.56 154.756 876.713 160.239 876.713 167.057V247H841.514V165.352C841.514 158.932 839.668 153.818 835.974 150.011C832.338 146.205 827.537 144.301 821.571 144.301C817.537 144.301 813.901 145.324 810.662 147.369C807.48 149.358 804.952 152.17 803.077 155.807C801.202 159.386 800.264 163.591 800.264 168.42V247H763.957ZM982.864 247V116.091H1019.17V247H982.864ZM1001.1 99.2159C995.705 99.2159 991.074 97.4261 987.21 93.8466C983.403 90.2102 981.5 85.8636 981.5 80.8068C981.5 75.8068 983.403 71.517 987.21 67.9375C991.074 64.3011 995.705 62.4829 1001.1 62.4829C1006.5 62.4829 1011.1 64.3011 1014.91 67.9375C1018.77 71.517 1020.7 75.8068 1020.7 80.8068C1020.7 85.8636 1018.77 90.2102 1014.91 93.8466C1011.1 97.4261 1006.5 99.2159 1001.1 99.2159ZM1157.17 153.42L1123.94 155.466C1123.37 152.625 1122.15 150.068 1120.27 147.795C1118.4 145.466 1115.92 143.619 1112.86 142.256C1109.85 140.835 1106.24 140.125 1102.03 140.125C1096.41 140.125 1091.66 141.318 1087.8 143.705C1083.94 146.034 1082 149.159 1082 153.08C1082 156.205 1083.25 158.847 1085.75 161.006C1088.25 163.165 1092.54 164.898 1098.62 166.205L1122.32 170.977C1135.04 173.591 1144.53 177.795 1150.78 183.591C1157.03 189.386 1160.16 197 1160.16 206.432C1160.16 215.011 1157.63 222.54 1152.57 229.017C1147.57 235.494 1140.7 240.551 1131.95 244.188C1123.25 247.767 1113.23 249.557 1101.86 249.557C1084.53 249.557 1070.73 245.949 1060.44 238.733C1050.21 231.46 1044.22 221.574 1042.46 209.074L1078.17 207.199C1079.25 212.483 1081.86 216.517 1086.01 219.301C1090.16 222.028 1095.47 223.392 1101.95 223.392C1108.31 223.392 1113.42 222.17 1117.29 219.727C1121.21 217.227 1123.2 214.017 1123.25 210.097C1123.2 206.801 1121.81 204.102 1119.08 202C1116.35 199.841 1112.15 198.193 1106.46 197.057L1083.79 192.54C1071.01 189.983 1061.49 185.551 1055.24 179.244C1049.05 172.937 1045.95 164.898 1045.95 155.125C1045.95 146.716 1048.23 139.472 1052.77 133.392C1057.37 127.312 1063.82 122.625 1072.12 119.33C1080.47 116.034 1090.24 114.386 1101.44 114.386C1117.97 114.386 1130.98 117.881 1140.47 124.869C1150.02 131.858 1155.58 141.375 1157.17 153.42ZM1252.65 116.091V143.364H1173.82V116.091H1252.65ZM1191.71 84.7273H1228.02V206.773C1228.02 210.125 1228.53 212.739 1229.55 214.614C1230.58 216.432 1232 217.71 1233.82 218.449C1235.69 219.187 1237.85 219.557 1240.29 219.557C1242 219.557 1243.7 219.415 1245.41 219.131C1247.11 218.79 1248.42 218.534 1249.33 218.364L1255.04 245.381C1253.22 245.949 1250.66 246.602 1247.37 247.341C1244.07 248.136 1240.07 248.619 1235.35 248.79C1226.6 249.131 1218.93 247.966 1212.34 245.295C1205.8 242.625 1200.72 238.477 1197.08 232.852C1193.45 227.227 1191.66 220.125 1191.71 211.545V84.7273Z" fill="#3C3D4A"/>
<path d="M1297.52 249.216C1291.9 249.216 1287.07 247.227 1283.03 243.25C1279.06 239.216 1277.07 234.386 1277.07 228.761C1277.07 223.193 1279.06 218.42 1283.03 214.443C1287.07 210.466 1291.9 208.477 1297.52 208.477C1302.98 208.477 1307.75 210.466 1311.84 214.443C1315.93 218.42 1317.98 223.193 1317.98 228.761C1317.98 232.511 1317.01 235.949 1315.08 239.074C1313.2 242.142 1310.73 244.614 1307.66 246.489C1304.6 248.307 1301.22 249.216 1297.52 249.216ZM1385.12 249.472C1376.76 249.472 1369.32 248.023 1362.79 245.125C1356.25 242.17 1351.08 237.824 1347.27 232.085C1343.52 226.29 1341.65 219.074 1341.65 210.438C1341.65 203.165 1342.98 197.057 1345.65 192.114C1348.33 187.17 1351.96 183.193 1356.56 180.182C1361.17 177.17 1366.39 174.898 1372.25 173.364C1378.15 171.83 1384.35 170.75 1390.83 170.125C1398.44 169.33 1404.58 168.591 1409.23 167.909C1413.89 167.17 1417.27 166.091 1419.38 164.67C1421.48 163.25 1422.53 161.148 1422.53 158.364V157.852C1422.53 152.455 1420.83 148.278 1417.42 145.324C1414.06 142.369 1409.29 140.892 1403.1 140.892C1396.56 140.892 1391.37 142.341 1387.5 145.239C1383.64 148.08 1381.08 151.659 1379.83 155.977L1346.25 153.25C1347.96 145.295 1351.31 138.42 1356.31 132.625C1361.31 126.773 1367.76 122.284 1375.65 119.159C1383.61 115.977 1392.81 114.386 1403.27 114.386C1410.54 114.386 1417.5 115.239 1424.15 116.943C1430.85 118.648 1436.79 121.29 1441.96 124.869C1447.19 128.449 1451.31 133.051 1454.32 138.676C1457.33 144.244 1458.84 150.92 1458.84 158.705V247H1424.4V228.847H1423.38C1421.28 232.938 1418.47 236.545 1414.94 239.67C1411.42 242.739 1407.19 245.153 1402.25 246.915C1397.3 248.619 1391.59 249.472 1385.12 249.472ZM1395.51 224.415C1400.85 224.415 1405.57 223.364 1409.66 221.261C1413.75 219.102 1416.96 216.205 1419.29 212.568C1421.62 208.932 1422.79 204.812 1422.79 200.21V186.318C1421.65 187.057 1420.09 187.739 1418.1 188.364C1416.17 188.932 1413.98 189.472 1411.54 189.983C1409.09 190.437 1406.65 190.864 1404.21 191.261C1401.76 191.602 1399.55 191.915 1397.56 192.199C1393.3 192.824 1389.58 193.818 1386.39 195.182C1383.21 196.545 1380.74 198.392 1378.98 200.722C1377.22 202.994 1376.34 205.835 1376.34 209.244C1376.34 214.188 1378.13 217.966 1381.71 220.58C1385.34 223.136 1389.94 224.415 1395.51 224.415ZM1487 247V116.091H1523.31V247H1487ZM1505.24 99.2159C1499.85 99.2159 1495.21 97.4261 1491.35 93.8466C1487.54 90.2102 1485.64 85.8636 1485.64 80.8068C1485.64 75.8068 1487.54 71.517 1491.35 67.9375C1495.21 64.3011 1499.85 62.4829 1505.24 62.4829C1510.64 62.4829 1515.24 64.3011 1519.05 67.9375C1522.91 71.517 1524.85 75.8068 1524.85 80.8068C1524.85 85.8636 1522.91 90.2102 1519.05 93.8466C1515.24 97.4261 1510.64 99.2159 1505.24 99.2159Z" fill="#556AEF"/>
<defs>
<clipPath id="clip0_393_22">
<rect width="320" height="320" fill="white"/>
</clipPath>
</defs>
</svg>
