<svg width="320" height="320" viewBox="0 0 320 320" fill="none" xmlns="http://www.w3.org/2000/svg">
<g clip-path="url(#clip0_393_3)">
<path d="M319.772 150.894C323.053 209.276 294.098 267.331 240 298.564C185.901 329.798 121.147 325.846 72.2273 293.814L121.702 265.25C151.722 276.156 186.174 274.215 216 256.995C245.825 239.775 264.733 210.909 270.298 179.458L319.772 150.894ZM79.9996 21.436C156.526 -22.7467 254.381 3.47328 298.564 80.0001C302.642 87.0643 306.119 94.311 309.013 101.68L266.762 126.074C264.358 118.534 261.113 111.134 256.994 104C226.067 50.4313 157.568 32.0773 104 63.0053C57.5652 89.8142 37.5909 144.852 53.2375 193.926L89.1099 173.215L113.11 214.785L34.9858 259.89C30.0515 253.699 25.5141 247.064 21.4355 240C-22.7472 163.473 3.47279 65.6188 79.9996 21.436Z" fill="#3C3D4A"/>
<circle cx="160" cy="160" r="24" fill="#556AEF"/>
</g>
<defs>
<clipPath id="clip0_393_3">
<rect width="320" height="320" fill="white"/>
</clipPath>
</defs>
</svg>
